<svg width="42" height="34" viewBox="0 0 42 34" fill="none" xmlns="http://www.w3.org/2000/svg">
<path d="M0 4.85714C0 2.17813 2.33282 0 5.20211 0H15.9396C17.4921 0 18.9796 0.576786 20.0769 1.60134L23.5639 4.85714H36.4148C39.2841 4.85714 41.6169 7.03527 41.6169 9.71429V29.1429C41.6169 31.8219 39.2841 34 36.4148 34H5.20211C2.33282 34 0 31.8219 0 29.1429V4.85714ZM5.20211 3.64286C4.48682 3.64286 3.90158 4.18929 3.90158 4.85714V29.1429C3.90158 29.8107 4.48682 30.3571 5.20211 30.3571H36.4148C37.1301 30.3571 37.7153 29.8107 37.7153 29.1429V9.71429C37.7153 9.04643 37.1301 8.5 36.4148 8.5H23.2957C22.4341 8.5 21.605 8.18125 20.9954 7.61205L17.3214 4.17411C16.9556 3.83259 16.4598 3.64286 15.9396 3.64286H5.20211Z" fill="#274AFE"/>
</svg>
